<svg data-v-423bf9ae="" xmlns="http://www.w3.org/2000/svg" viewBox="0 0 524 101" class="iconLeft"><!----><!----><!----><g data-v-423bf9ae="" id="eaafb53b-6c5f-4575-9464-42f6d04f4b10" fill="white" transform="matrix(5.853658536585366,0,0,5.853658536585366,91.7053304380033,6.330558172086391)"><path d="M5.46 12.67L5.46 12.67Q3.28 12.67 1.81 11.20L1.81 11.20L1.81 11.20Q0.33 9.73 0.33 7.53L0.33 7.53L0.33 7.53Q0.34 5.37 1.81 3.89L1.81 3.89L1.81 3.89Q3.28 2.42 5.46 2.42L5.46 2.42L5.46 2.42Q7.65 2.42 9.22 3.79L9.22 3.79L7.85 5.28L7.85 5.28Q6.81 4.46 5.46 4.46L5.46 4.46L5.46 4.46Q4.07 4.47 3.23 5.33L3.23 5.33L3.23 5.33Q2.39 6.18 2.39 7.51L2.39 7.51L2.39 7.51Q2.39 8.94 3.24 9.78L3.24 9.78L3.24 9.78Q4.09 10.62 5.47 10.62L5.47 10.62L5.47 10.62Q6.85 10.62 7.85 9.81L7.85 9.81L9.22 11.31L9.22 11.31Q7.66 12.67 5.46 12.67L5.46 12.67ZM16.04 12.67L16.04 12.67Q13.85 12.67 12.38 11.20L12.38 11.20L12.38 11.20Q10.91 9.73 10.91 7.55L10.91 7.55L10.91 7.55Q10.91 5.36 12.38 3.89L12.38 3.89L12.38 3.89Q13.85 2.42 16.04 2.42L16.04 2.42L16.04 2.42Q18.22 2.42 19.69 3.89L19.69 3.89L19.69 3.89Q21.16 5.36 21.16 7.55L21.16 7.55L21.16 7.55Q21.16 9.73 19.69 11.20L19.69 11.20L19.69 11.20Q18.22 12.67 16.04 12.67L16.04 12.67ZM16.04 10.76L16.04 10.76L16.04 10.76Q17.40 10.76 18.26 9.84L18.26 9.84L18.26 9.84Q19.11 8.91 19.11 7.55L19.11 7.55L19.11 7.55Q19.11 6.18 18.26 5.26L18.26 5.26L18.26 5.26Q17.40 4.33 16.03 4.33L16.03 4.33L16.03 4.33Q14.67 4.33 13.82 5.26L13.82 5.26L13.82 5.26Q12.96 6.18 12.96 7.55L12.96 7.55L12.96 7.55Q12.96 8.91 13.82 9.84L13.82 9.84L13.82 9.84Q14.67 10.76 16.04 10.76ZM24.74 12.67L22.69 12.67L22.69 2.42L23.37 2.42L29.80 8.85L29.80 2.42L31.85 2.42L31.85 12.67L31.10 12.67L24.74 6.32L24.74 12.67ZM41.47 12.67L33.95 12.67L33.95 2.43L41.48 2.42L41.48 4.33L36.00 4.33L36.00 6.52L40.11 6.52L40.11 8.43L36.00 8.43L36.00 10.76L41.47 10.76L41.47 12.67ZM48.16 12.67L48.16 12.67Q45.99 12.67 44.51 11.20L44.51 11.20L44.51 11.20Q43.04 9.73 43.04 7.53L43.04 7.53L43.04 7.53Q43.05 5.37 44.52 3.89L44.52 3.89L44.52 3.89Q45.99 2.42 48.16 2.42L48.16 2.42L48.16 2.42Q50.35 2.42 51.93 3.79L51.93 3.79L50.56 5.28L50.56 5.28Q49.51 4.46 48.16 4.46L48.16 4.46L48.16 4.46Q46.78 4.47 45.93 5.33L45.93 5.33L45.93 5.33Q45.09 6.18 45.09 7.51L45.09 7.51L45.09 7.51Q45.10 8.94 45.94 9.78L45.94 9.78L45.94 9.78Q46.79 10.62 48.17 10.62L48.17 10.62L48.17 10.62Q49.55 10.62 50.56 9.81L50.56 9.81L51.93 11.31L51.93 11.31Q50.36 12.67 48.16 12.67L48.16 12.67ZM62.50 2.42L53.61 2.42L53.61 4.33L57.03 4.33L57.03 12.67L59.08 12.67L59.08 4.33L62.50 4.33L62.50 2.42ZM65.67 12.67L63.49 12.67L67.59 2.42L69.64 2.42L73.73 12.67L71.55 12.67L70.94 11.10L66.29 11.10L65.67 12.67ZM70.18 9.05L68.67 5.15L67.11 9.05L70.18 9.05Z"></path></g><!----><g data-v-423bf9ae="" id="ec8cb1cf-6a9d-42f8-990c-20890021e91e" transform="matrix(1.059312269422743,0,0,1.059312269422743,-14.688142616437268,-1.6305697250614912)" stroke="none" fill="white"><path d="M82.6 38c-1.1-1.4-2.7-2.2-4.5-2.3-1.8-.2-3.5.4-4.8 1.5-1.4 1.1-2.2 2.7-2.3 4.5s.4 3.5 1.5 4.8c1 1.1 2.2 1.9 3.6 2.2v9.7L51 89.2V60.1l14-17.2V32c1-.2 1.9-.7 2.8-1.4 1.4-1.1 2.2-2.7 2.3-4.5.2-1.8-.4-3.5-1.5-4.8-1.1-1.4-2.7-2.2-4.5-2.3-1.8-.2-3.5.4-4.8 1.5-1.4 1.1-2.2 2.7-2.3 4.5-.2 1.8.4 3.5 1.5 4.8 1 1.1 2.2 1.9 3.6 2.2v9.7L51 55.3v-40c1-.2 1.9-.7 2.8-1.4 1.4-1.1 2.2-2.7 2.3-4.5.2-1.8-.4-3.5-1.5-4.8-1.1-1.4-2.7-2.2-4.5-2.3-1.8-.2-3.5.4-4.8 1.5-1.4 1.1-2.2 2.7-2.3 4.5-.2 1.8.4 3.5 1.5 4.8 1 1.1 2.2 1.9 3.6 2.2v32.3L36.7 37v-8c1.4-.3 2.6-1 3.6-2.2 2.3-2.8 2-7-.8-9.3-1.4-1.1-3.1-1.7-4.8-1.5-1.8.2-3.4 1-4.5 2.3-2.3 2.8-2 7 .8 9.3.8.7 1.8 1.1 2.8 1.4v9.3L48 51.8v29.5L22.7 53.7V44c1.4-.3 2.6-1 3.6-2.2 2.3-2.8 2-7-.8-9.3-1.4-1.1-3.1-1.7-4.8-1.5-1.8.2-3.4 1-4.5 2.3s-1.7 3.1-1.5 4.8c.2 1.8 1 3.4 2.3 4.5.8.7 1.8 1.1 2.8 1.4v10.8L48 85.7v11.9h3V94l28-34.5V48.7c1-.2 1.9-.7 2.8-1.4 2.8-2.3 3.2-6.5.8-9.3z"></path></g><!----></svg>