<?xml version="1.0" encoding="utf-8"?>
<!-- Generator: Adobe Illustrator 26.0.3, SVG Export Plug-In . SVG Version: 6.00 Build 0)  -->
<svg version="1.1" id="Layer_1" xmlns="http://www.w3.org/2000/svg" xmlns:xlink="http://www.w3.org/1999/xlink" x="0px" y="0px"
	 viewBox="0 0 810.5 574.2" style="enable-background:new 0 0 810.5 574.2;" xml:space="preserve">
<style type="text/css">
	.st0{fill:#FFFFFF;}
	.st1{fill:#3F3D56;}
	.st2{fill:#56B5BF;}
	.st3{fill:#E6E6E6;}
	.st4{fill:#9F616A;}
	.st5{fill:#2F2E41;}
	.st6{fill:#CCCCCC;}
</style>
<path class="st0" d="M603.5,296h-270c-2.8,0-5-2.2-5-5V168c0-2.8,2.2-5,5-5h270c2.8,0,5,2.2,5,5v123
	C608.5,293.7,606.3,296,603.5,296z"/>
<path class="st1" d="M603.5,296h-270c-2.8,0-5-2.2-5-5V168c0-2.8,2.2-5,5-5h270c2.8,0,5,2.2,5,5v123
	C608.5,293.7,606.3,296,603.5,296z M333.5,165c-1.7,0-3,1.3-3,3v123c0,1.7,1.3,3,3,3h270c1.7,0,3-1.3,3-3V168c0-1.7-1.3-3-3-3H333.5
	z"/>
<circle class="st2" cx="368.5" cy="201.5" r="21"/>
<path class="st3" d="M417,187.5c-1.9,0-3.5,1.6-3.5,3.5s1.6,3.5,3.5,3.5h165c1.9,0,3.5-1.6,3.5-3.5s-1.6-3.5-3.5-3.5H417z"/>
<path class="st3" d="M417,208.5c-1.9,0-3.5,1.6-3.5,3.5s1.6,3.5,3.5,3.5h71c1.9,0,3.5-1.6,3.5-3.5s-1.6-3.5-3.5-3.5H417z"/>
<path class="st3" d="M352.4,242.1c-2.7,0-4.8,1.6-4.8,3.5s2.2,3.5,4.8,3.5H580c2.7,0,4.8-1.6,4.8-3.5s-2.2-3.5-4.8-3.5H352.4z"/>
<path class="st3" d="M352.4,263.1c-2.7,0-4.8,1.6-4.8,3.5s2.2,3.5,4.8,3.5H580c2.7,0,4.8-1.6,4.8-3.5s-2.2-3.5-4.8-3.5H352.4z"/>
<path class="st0" d="M805.5,133h-270c-2.8,0-5-2.2-5-5V5c0-2.8,2.2-5,5-5h270c2.8,0,5,2.2,5,5v123C810.5,130.7,808.3,133,805.5,133z
	"/>
<path class="st1" d="M805.5,133h-270c-2.8,0-5-2.2-5-5V5c0-2.8,2.2-5,5-5h270c2.8,0,5,2.2,5,5v123C810.5,130.7,808.3,133,805.5,133z
	 M535.5,2c-1.7,0-3,1.3-3,3v123c0,1.7,1.3,3,3,3h270c1.7,0,3-1.3,3-3V5c0-1.7-1.3-3-3-3H535.5z"/>
<circle class="st2" cx="570.5" cy="38.5" r="21"/>
<path class="st3" d="M619,24.5c-1.9,0-3.5,1.6-3.5,3.5s1.6,3.5,3.5,3.5h165c1.9,0,3.5-1.6,3.5-3.5s-1.6-3.5-3.5-3.5H619z"/>
<path class="st3" d="M619,45.5c-1.9,0-3.5,1.6-3.5,3.5s1.6,3.5,3.5,3.5h71c1.9,0,3.5-1.6,3.5-3.5s-1.6-3.5-3.5-3.5H619z"/>
<path class="st3" d="M554.4,79.1c-2.7,0-4.8,1.6-4.8,3.5s2.2,3.5,4.8,3.5H782c2.7,0,4.8-1.6,4.8-3.5s-2.2-3.5-4.8-3.5H554.4z"/>
<path class="st3" d="M554.4,100.1c-2.7,0-4.8,1.6-4.8,3.5s2.2,3.5,4.8,3.5H782c2.7,0,4.8-1.6,4.8-3.5s-2.2-3.5-4.8-3.5H554.4z"/>
<path class="st0" d="M805.5,459h-270c-2.8,0-5-2.2-5-5V331c0-2.8,2.2-5,5-5h270c2.8,0,5,2.2,5,5v123
	C810.5,456.7,808.3,459,805.5,459z"/>
<path class="st1" d="M805.5,459h-270c-2.8,0-5-2.2-5-5V331c0-2.8,2.2-5,5-5h270c2.8,0,5,2.2,5,5v123
	C810.5,456.7,808.3,459,805.5,459z M535.5,328c-1.7,0-3,1.3-3,3v123c0,1.7,1.3,3,3,3h270c1.7,0,3-1.3,3-3V331c0-1.7-1.3-3-3-3H535.5
	z"/>
<circle class="st2" cx="570.5" cy="364.5" r="21"/>
<path class="st3" d="M619,350.5c-1.9,0-3.5,1.6-3.5,3.5s1.6,3.5,3.5,3.5h165c1.9,0,3.5-1.6,3.5-3.5s-1.6-3.5-3.5-3.5H619z"/>
<path class="st3" d="M619,371.5c-1.9,0-3.5,1.6-3.5,3.5s1.6,3.5,3.5,3.5h71c1.9,0,3.5-1.6,3.5-3.5s-1.6-3.5-3.5-3.5H619z"/>
<path class="st3" d="M554.4,405.1c-2.7,0-4.8,1.6-4.8,3.5s2.2,3.5,4.8,3.5H782c2.7,0,4.8-1.6,4.8-3.5s-2.2-3.5-4.8-3.5H554.4z"/>
<path class="st3" d="M554.4,426.1c-2.7,0-4.8,1.6-4.8,3.5s2.2,3.5,4.8,3.5H782c2.7,0,4.8-1.6,4.8-3.5s-2.2-3.5-4.8-3.5H554.4z"/>
<polygon class="st4" points="260.4,560 273.8,556.1 265.1,502.6 245.4,508.4 "/>
<path class="st5" d="M303.2,561l-42.1,12.2l0,0l-4.7-16.3l0,0l27.8-8.1c7.9-2.3,16.2,2.2,18.4,10.1L303.2,561L303.2,561z"/>
<polygon class="st4" points="122,560.3 136,560.3 142.6,506.5 122,506.5 "/>
<path class="st5" d="M162.9,573.2h-43.8l0,0v-16.9l0,0H148c8.2,0,14.9,6.7,14.9,14.9L162.9,573.2L162.9,573.2z"/>
<path class="st4" d="M154.8,373.1c4-4.9,3.3-12.1-1.5-16.1c-0.5-0.4-1.1-0.8-1.7-1.1l7.2-40l-19.4,8.3l-3.9,36.7
	c-2.7,5.7-0.3,12.6,5.4,15.3C145.7,378.6,151.5,377.3,154.8,373.1z"/>
<path class="st2" d="M136.3,348.8l19.1,3.9l8.9-64.5v-0.1l28-62.8c0-0.1,3.4-10.8-0.2-17.7c-1.3-2.5-3.6-4.4-6.4-5.2
	c-12.3-3.8-18,5.1-18.5,5.9l-22.8,69.1L136.3,348.8z"/>
<path class="st5" d="M243.7,549.5l-22.8-101.7l-32.3-68l-35,167.3l-52.2-5.8l47.9-176.7c-0.7-2.7-11.2-43,20.6-64l5.5-18.5l47.2,11
	l-0.6,44.1l39.8,90.9l34.3,105.1L243.7,549.5z"/>
<path class="st2" d="M224,299.2l-48.7-4.6l1.1-29.9c-1.7-3.1-24.7-44.9-9.5-60.1l4.6-6.9l0.1-0.1c0.2-0.1,18.8-10.2,34.7,10.4
	c3.7,4.6,7.6,8.9,11.8,13c10.3,10.4,17,17.2,7.7,35.2L224,299.2z"/>
<circle class="st4" cx="195.6" cy="160.8" r="27.9"/>
<path class="st4" d="M207.2,371.6c2.7-5.7,0.2-12.5-5.6-15.2c-0.6-0.3-1.2-0.5-1.9-0.7l-3.1-40.5l-16.7,12.9l5.5,36.5
	c-1.2,6.2,2.9,12.3,9.1,13.5C199.8,379.1,205,376.4,207.2,371.6L207.2,371.6z"/>
<path class="st2" d="M182.2,353.8l-10.3-72.1l4.6-72.9c0-0.1,3.4-11.8,17.4-11.2c3.1,0.1,6.1,1.4,8.2,3.7c5.5,6.1,5,17.4,4.9,17.8
	L195.8,287l7.9,65.6L182.2,353.8z"/>
<path class="st5" d="M232.3,139.5c-1-5.7-5.8-10.3-11.1-12.5c-5.4-2.3-11.3-2.7-17.1-3c-4.9-0.4-9.9-0.4-14.9,0
	c0.7-0.9,1.1-1.9,1.3-2.9c0.4-2.5-1-5.3-3.5-5.8c-1.8-0.4-3.6,0.4-5.4,0.9c-1.8,0.5-3.9,0.7-5.2-0.5c-1.5-1.4-1.1-4-2.4-5.6
	c-1.2-1.5-3.5-1.7-5.4-1c-1.8,0.8-3.4,2-4.7,3.5l-1.7,1.6c-0.1-0.1-0.3-0.2-0.4-0.3c-4.4-3.4-6.6-8.5-4.1-12.7
	c-2.6,4.4-2.3,9.9,0.6,14c0.4,0.6,0.8,1.1,1.3,1.6c-0.9,0.9-1.7,1.7-2.6,2.6c-1.3,1.3-2.8,3-2.4,4.8c0.4,1.9,2.7,2.9,4.6,2.6
	c1.6-0.3,3.1-1,4.4-2c-1.8,1.3-3.2,2.9-4.1,4.9c-1.1,2.3-0.8,5,0.7,7c1.1,1.2,2.6,1.9,4.2,2.1c-2.8,4.1-4.7,8.8-5.4,13.8
	c-1.6,13,4.4,25.7,15.5,32.7c2.9,2,6.4,3.1,9.9,3.2c3.5-0.1,7.1-1.8,8.7-5c1.7-3.3,0.9-7.2,0.2-10.8s-1.2-7.6,1-10.6
	c2.1-3,7.8-3.2,8.8,0.4c4-6.8,11.9-10.4,19.6-8.8l1.5,2.4C229.9,155.5,233.3,145.2,232.3,139.5z"/>
<path class="st6" d="M382,574.2H1c-0.6,0-1-0.4-1-1s0.4-1,1-1h381c0.6,0,1,0.4,1,1S382.6,574.2,382,574.2z"/>
</svg>
